Coordinates
version=1
nRows=17
nColumns=36
inDegrees=yes

Units are S.I. units (second, meters, Newtons, ...)
If the header above contains a line with 'inDegrees', this indicates whether rotational values are in degrees (yes) or radians (no).

endheader
time	pelvis_tilt	pelvis_list	pelvis_rotation	pelvis_tx	pelvis_ty	pelvis_tz	hip_flexion_r	hip_adduction_r	hip_rotation_r	knee_angle_r	knee_angle_r_beta	ankle_angle_r	subtalar_angle_r	mtp_angle_r	hip_flexion_l	hip_adduction_l	hip_rotation_l	knee_angle_l	knee_angle_l_beta	ankle_angle_l	subtalar_angle_l	mtp_angle_l	lumbar_extension	lumbar_bending	lumbar_rotation	arm_flex_r	arm_add_r	arm_rot_r	elbow_flex_r	pro_sup_r	arm_flex_l	arm_add_l	arm_rot_l	elbow_flex_l	pro_sup_l
      2.20000000	     -5.77879128	     -0.33479601	      2.13297570	      0.40219707	      1.00013371	     -0.02539654	      5.53792826	     -2.14811913	      5.92658655	      9.25467559	      0.16152456	      6.00758217	    -14.74298027	     -7.49999987	      7.10187658	     -5.44623540	      3.48757064	      9.88301066	      0.17249108	      5.38445570	     -5.87881533	     -7.49999987	     -4.08187073	     -0.17450399	     -0.01357669	     -0.61209604	    -11.78079286	     22.36775733	     33.84378934	     67.20974345	     -0.81794035	    -15.95812574	     15.55666215	     38.61504008	     56.24938382
      2.21666670	     -5.85320006	     -0.32682017	      1.92992494	      0.40249742	      0.99971357	     -0.02516941	      5.43657823	     -2.08780915	      6.28122478	      8.91385955	      0.15557620	      6.05805394	    -14.80883900	     -7.49999987	      6.95714628	     -5.51535354	      3.39968457	      9.55764353	      0.16681235	      5.30942030	     -5.98905724	     -7.49999987	     -3.48620259	     -0.37647918	     -0.11505477	     -0.31551719	    -11.37806911	     21.93257303	     33.83353046	     66.97229803	     -0.80035495	    -15.74548513	     15.29028938	     38.42957832	     56.33772562
      2.23333330	     -6.08568317	     -0.29808291	      1.72709490	      0.39852418	      0.99709555	     -0.02891470	      5.73678999	     -2.08944796	      6.48616489	      8.85534499	      0.15455493	      5.99893629	    -14.95248994	     -7.49999987	      7.08166740	     -5.47963062	      3.26595788	      9.28007399	      0.16196785	      5.26702903	     -6.01390303	     -7.49999987	     -2.91678781	     -0.55645893	     -0.18490845	      0.11478048	    -11.08548789	     21.58384575	     34.27320402	     67.12775891	     -0.58346100	    -15.34903372	     15.20050730	     38.60016623	     56.33676896
      2.25000000	     -6.25820013	     -0.28017041	      1.58596605	      0.39887333	      0.99986657	     -0.02905887	      5.84254920	     -2.10501138	      6.77812524	      8.51942249	      0.14869197	      5.69201344	    -15.12808165	     -7.49999987	      7.20575852	     -5.42847573	      3.20071215	      9.06251959	      0.15817081	      5.15445043	     -6.02193977	     -7.49999987	     -2.56427684	     -0.71493042	     -0.27501406	      0.49614568	    -10.65888118	     20.93040388	     34.67730301	     66.86303022	     -0.33572976	    -14.92280161	     14.94791728	     38.87178344	     56.59576659
      2.26666670	     -6.42588255	     -0.20872070	      1.46536746	      0.40279410	      1.00588145	     -0.03395622	      5.77273351	     -2.30907715	      6.84908682	      8.00516099	      0.13971642	      5.30451341	    -14.85874165	     -7.49999987	      7.16758477	     -5.24275259	      3.12499237	      8.69760543	      0.15180185	      4.89522517	     -5.92689806	     -7.49999987	     -1.96457646	     -0.83835628	     -0.40326520	      0.62890129	    -10.45920391	     20.80565962	     34.86096930	     66.96513709	     -0.30431044	    -14.44929302	     15.09897620	     38.99836485	     56.65795782
      2.28333330	     -6.46949238	     -0.13449812	      1.31856379	      0.40316709	      1.00493940	     -0.03374752	      5.54704723	     -2.48543633	      6.94847411	      7.47570241	      0.13047562	      5.06699129	    -14.52288569	     -7.49999987	      6.91635770	     -5.04664993	      3.01290659	      8.23148983	      0.14366660	      4.73285312	     -5.86684577	     -7.49999987	     -1.48651849	     -0.96991272	     -0.59431657	      0.49856293	    -10.05344976	     19.85315972	     35.13372836	     66.85935141	     -0.37208930	    -14.03569197	     15.05099592	     39.03208889	     57.05379993
      2.30000000	     -6.55936887	     -0.02547726	      1.20555151	      0.40321270	      1.00477641	     -0.03374544	      5.42311167	     -2.68532718	      7.11452024	      6.99806109	      0.12213921	      4.71273848	    -14.40875240	     -7.49999987	      6.73627845	     -4.84254834	      2.98869237	      7.81323461	      0.13636667	      4.45946697	     -5.89221043	     -7.49999987	     -0.97564374	     -1.17947527	     -0.68395089	      0.24161492	     -9.69164094	     18.96996381	     35.62647762	     66.84845907	     -0.53359955	    -13.79265192	     14.93527866	     39.17896679	     57.45325674
      2.31666670	     -6.61736383	      0.01390598	      1.04536294	      0.40347981	      1.00376873	     -0.03351733	      5.31457001	     -2.80762471	      7.21770559	      6.60863917	      0.11534251	      4.52224977	    -14.14563674	     -7.49999987	      6.52331880	     -4.75318207	      2.73274722	      7.38122255	      0.12882664	      4.49902269	     -5.56310718	     -7.49999987	     -0.52054072	     -1.25150326	     -0.64674947	     -0.01302438	     -9.36383764	     17.99457478	     35.97878189	     66.58151015	     -0.70703041	    -13.53460950	     14.64418140	     39.26442081	     57.98809236
      2.33333330	     -6.98699236	      0.01346325	      0.98399728	      0.40377206	      1.00325848	     -0.03356479	      5.63307603	     -2.87346058	      7.15971657	      6.41069858	      0.11188780	      4.66906044	    -13.79150362	     -7.49999987	      6.79649001	     -4.71263308	      2.66817682	      7.18680297	      0.12543337	      4.65739031	     -5.45985842	     -7.49999987	      0.31021662	     -1.25525175	     -0.64899131	     -0.47175878	     -9.22628107	     17.77870083	     37.07680687	     66.25772460	     -1.19682329	    -13.47967901	     14.55345818	     40.24328463	     58.16072934
      2.35000000	     -6.72570663	      0.06103631	      0.86393999	      0.40371083	      1.00317995	     -0.03324081	      5.23588991	     -2.95046533	      7.37864601	      6.07726761	      0.10606833	      4.13578508	    -14.13692508	     -7.49999987	      6.21292512	     -4.65366087	      2.54117025	      6.65423149	      0.11613825	      4.28152855	     -5.63285615	     -7.49999987	      0.25767505	     -1.27569266	     -0.13664207	     -0.78544605	     -8.57984790	     14.81358920	     37.35492360	     72.88199429	     -0.68494691	    -13.16870134	     14.82832587	     39.34080193	     63.19071489
      2.36666670	     -6.73475870	      0.08102956	      0.86043745	      0.40367415	      1.00323749	     -0.03324719	      5.16982563	     -3.00993314	      7.32477898	      5.88564843	      0.10272394	      4.14780103	    -13.99115047	     -7.49999987	      6.08075067	     -4.62630590	      2.52701338	      6.38637882	      0.11146334	      4.21140801	     -5.62743244	     -7.49999987	      0.55499278	     -1.32308843	     -0.14297200	     -0.75357653	     -8.25765802	     14.92571865	     37.89345366	     72.05795542	     -0.99659940	    -12.95538373	     14.70330603	     39.57108067	     63.03994071
      2.38333330	     -6.81043968	      0.09606719	      0.81429476	      0.40395341	      1.00260764	     -0.03312442	      5.19612975	     -3.05305379	      7.26604096	      5.71715445	      0.09978317	      4.09388992	    -13.87680035	     -7.49999987	      6.00892308	     -4.62661574	      2.25633019	      6.11990813	      0.10681255	      4.14762065	     -5.35347365	     -7.49999987	      0.98626759	     -1.35466710	      0.08979525	     -0.91761197	     -8.01341074	     15.04890079	     38.73690387	     71.32404465	     -1.48158246	    -12.90520382	     14.73241979	     40.21708369	     62.96914473
      2.40000000	     -6.60944072	      0.08968033	      0.78585125	      0.40350292	      1.00008225	     -0.03278847	      4.99183584	     -3.03198455	      7.38454422	      5.67678757	      0.09907863	      4.11859636	    -14.30199654	     -7.49999987	      5.71249309	     -4.67323511	      2.19985108	      5.97345018	      0.10425637	      4.26801120	     -5.32641820	     -7.49999987	      0.89261548	     -1.38238629	      0.23880373	     -0.75714361	     -7.78434958	     15.40322499	     38.93330692	     71.03632272	     -1.51977795	    -12.93975297	     15.10432496	     40.23551146	     63.24158966
      2.41666670	     -6.56150775	      0.10076776	      0.84616061	      0.40365878	      1.00316167	     -0.03324079	      4.94476780	     -3.04175133	      7.09707408	      5.68355828	      0.09919681	      4.19807195	    -14.25607694	     -7.49999987	      5.56934196	     -4.67241201	      2.18940788	      5.79278791	      0.10110322	      4.31574825	     -5.05945049	     -7.49999987	      1.02607371	     -1.49566265	      0.24760698	     -0.79452543	     -7.42021584	     15.52956342	     38.96424778	     69.78285265	     -1.66025590	    -12.97208152	     15.45466929	     40.14949119	     63.32645434
      2.43333330	     -6.59423120	      0.12373990	      0.81195402	      0.40341073	      1.00347913	     -0.03332553	      4.97881341	     -3.06752891	      7.15774426	      5.63533716	      0.09835519	      4.00872563	    -14.68053142	     -7.49999987	      5.53890565	     -4.67161368	      2.07204838	      5.67148820	      0.09898614	      4.39038391	     -4.99798415	     -7.49999987	      1.39044602	     -1.56654661	      0.57804890	     -0.97093638	     -7.30600623	     16.26640946	     38.68821463	     71.53817854	     -1.52741425	    -13.18981219	     17.00064051	     39.40898391	     66.05561726
      2.45000000	     -6.35967687	      0.12071919	      0.81000836	      0.40339937	      1.00346410	     -0.03329451	      4.71002400	     -3.05860426	      6.97179169	      5.57631393	      0.09732504	      4.09417784	    -14.52964866	     -7.49999987	      5.17883455	     -4.69536816	      2.04795276	      5.46826868	      0.09543929	      4.32481130	     -4.87342582	     -7.49999987	      1.34329909	     -1.64973876	      0.56129963	     -1.10649400	     -7.01125672	     15.93793401	     38.48164818	     71.18875918	     -1.75058463	    -13.00906594	     16.77988925	     39.10406886	     66.22166760
      2.46666670	     -6.37327666	      0.14423059	      0.77050583	      0.40311329	      1.00075778	     -0.03320769	      4.67715239	     -3.08519251	      7.04609313	      5.49969154	      0.09598773	      3.95799274	    -14.81660967	     -7.49999987	      5.15152973	     -4.70298186	      1.86980232	      5.44194258	      0.09497982	      4.40912003	     -4.53989319	     -7.49999987	      1.71294781	     -1.75649732	      0.76512585	     -1.37020481	     -6.89592164	     15.83132393	     38.16700023	     72.70385137	     -1.65917215	    -13.13345814	     17.73366510	     38.48190848	     69.47110070
